:FULLY-SPECIFIED
:FORCE-ALL-JOINTS-BE-3DOF
:DEGREES
306
root -0.0186063 15.3761 -36.0729 61.3057 51.6592 54.5224
lfemur -19.7444 18.3168 -16.49
ltibia 63.0419 0 0
lfoot -26.9277 28.4296 0
ltoes 2.20206 0 0
rfemur -38.0547 -10.9134 8.71015
rtibia 47.777 0 0
rfoot -3.41242 -7.08554 0
rtoes -9.14535 0 0
lowerback 13.8844 1.57238 -1.58804
upperback -2.69376 2.07046 2.41453
thorax -10.7175 1.1269 3.09493
lowerneck -5.39596 3.17447 0.158635
upperneck 5.7791 4.6166 -4.74855
head 3.40815 2.1419 -1.17253
lclavicle -2.85468e-14 -1.55343e-14 0
lhumerus -31.0704 -26.6577 92.5548
lradius 105.067 0 0
lwrist 39.354 0 0
lhand -20.3257 47.5828 0
lfingers 7.12502 0 0
lthumb 6.02512 77.4693 0
rclavicle -2.85468e-14 -1.55343e-14 0
rhumerus -10.9353 29.3102 -84.1477
rradius 79.0603 0 0
rwrist -23.0367 0 0
rhand 20.0879 -24.9716 0
rfingers 7.12502 0 0
rthumb 43.6956 -41.781 0
307
root 0.112552 15.3605 -36.0234 64.2081 52.9587 57.8326
lfemur -18.7488 17.5023 -16.5122
ltibia 62.2777 0 0
lfoot -27.005 28.395 0
ltoes 1.5345 0 0
rfemur -38.3997 -10.3416 8.24823
rtibia 47.1057 0 0
rfoot -2.30377 -6.46079 0
rtoes -7.93433 0 0
lowerback 13.9314 1.55407 -1.96333
upperback -2.63253 1.97294 2.37493
thorax -10.68 1.10079 3.28713
lowerneck -5.4171 2.78722 -0.104427
upperneck 5.8386 4.10272 -4.49528
head 3.41895 1.88876 -1.07746
lclavicle -2.71841e-14 -1.52046e-14 0
lhumerus -31.9356 -26.9229 93.8111
lradius 104.667 0 0
lwrist 39.9254 0 0
lhand -20.4175 47.253 0
lfingers 7.12502 0 0
lthumb 5.93655 77.1419 0
rclavicle -2.71841e-14 -1.52046e-14 0
rhumerus -8.73325 28.5879 -83.4458
rradius 77.7691 0 0
rwrist -21.8275 0 0
rhand 18.7961 -25.2978 0
rfingers 7.12502 0 0
rthumb 42.5064 -42.6516 0
308
root 0.243711 15.3449 -35.9739 67.1105 54.2583 61.1428
lfemur -17.7532 16.6878 -16.5344
ltibia 61.5135 0 0
lfoot -27.0822 28.3603 0
ltoes 0.866932 0 0
rfemur -38.7447 -9.76979 7.78632
rtibia 46.4344 0 0
rfoot -1.19512 -5.83604 0
rtoes -6.72331 0 0
lowerback 13.9784 1.53577 -2.33861
upperback -2.57129 1.87542 2.33534
thorax -10.6425 1.07468 3.47932
lowerneck -5.43824 2.39997 -0.367489
upperneck 5.8981 3.58884 -4.24202
head 3.42974 1.63562 -0.982394
lclavicle -2.58214e-14 -1.48749e-14 0
lhumerus -32.8008 -27.1882 95.0675
lradius 104.267 0 0
lwrist 40.4969 0 0
lhand -20.5092 46.9232 0
lfingers 7.12502 0 0
lthumb 5.84797 76.8146 0
rclavicle -2.58214e-14 -1.48749e-14 0
rhumerus -6.53118 27.8656 -82.744
rradius 76.4778 0 0
rwrist -20.6183 0 0
rhand 17.5043 -25.6239 0
rfingers 7.12502 0 0
rthumb 41.3173 -43.5222 0
309
root 0.374869 15.3292 -35.9245 70.0128 55.5578 64.453
lfemur -16.7576 15.8734 -16.5567
ltibia 60.7492 0 0
lfoot -27.1595 28.3257 0
ltoes 0.199368 0 0
rfemur -39.0896 -9.19796 7.3244
rtibia 45.7631 0 0
rfoot -0.0864756 -5.21129 0
rtoes -5.51229 0 0
lowerback 14.0254 1.51746 -2.7139
upperback -2.51006 1.7779 2.29574
thorax -10.6051 1.04857 3.67151
lowerneck -5.45939 2.01273 -0.630551
upperneck 5.95761 3.07495 -3.98875
head 3.44054 1.38248 -0.887326
lclavicle -2.44587e-14 -1.45452e-14 0
lhumerus -33.6661 -27.4534 96.3238
lradius 103.867 0 0
lwrist 41.0683 0 0
lhand -20.601 46.5935 0
lfingers 7.12502 0 0
lthumb 5.75939 76.4872 0
rclavicle -2.44587e-14 -1.45452e-14 0
rhumerus -4.32912 27.1432 -82.0421
rradius 75.1866 0 0
rwrist -19.4091 0 0
rhand 16.2124 -25.9501 0
rfingers 7.12502 0 0
rthumb 40.1282 -44.3927 0
310
root 0.506028 15.3136 -35.875 72.9152 56.8574 67.7632
lfemur -15.7619 15.0589 -16.5789
ltibia 59.985 0 0
lfoot -27.2367 28.291 0
ltoes -0.468195 0 0
rfemur -39.4346 -8.62614 6.86249
rtibia 45.0918 0 0
rfoot 1.02217 -4.58654 0
rtoes -4.30127 0 0
lowerback 14.0724 1.49916 -3.08918
upperback -2.44882 1.68038 2.25615
thorax -10.5676 1.02247 3.86371
lowerneck -5.48053 1.62548 -0.893613
upperneck 6.01711 2.56107 -3.73549
head 3.45133 1.12934 -0.792258
lclavicle -2.3096e-14 -1.42155e-14 0
lhumerus -34.5313 -27.7187 97.5802
lradius 103.466 0 0
lwrist 41.6398 0 0
lhand -20.6927 46.2637 0
lfingers 7.12502 0 0
lthumb 5.67081 76.1599 0
rclavicle -2.3096e-14 -1.42155e-14 0
rhumerus -2.12705 26.4209 -81.3403
rradius 73.8953 0 0
rwrist -18.1998 0 0
rhand 14.9206 -26.2762 0
rfingers 7.12502 0 0
rthumb 38.9391 -45.2633 0
311
root 0.637186 15.298 -35.8255 75.8175 58.1569 71.0734
lfemur -14.7663 14.2444 -16.6011
ltibia 59.2208 0 0
lfoot -27.314 28.2564 0
ltoes -1.13576 0 0
rfemur -39.7796 -8.05431 6.40057
rtibia 44.4205 0 0
rfoot 2.13082 -3.96179 0
rtoes -3.09025 0 0
lowerback 14.1194 1.48085 -3.46447
upperback -2.38759 1.58286 2.21655
thorax -10.5301 0.996358 4.0559
lowerneck -5.50167 1.23823 -1.15667
upperneck 6.07661 2.04719 -3.48222
head 3.46213 0.876199 -0.69719
lclavicle -2.17333e-14 -1.38858e-14 0
lhumerus -35.3965 -27.9839 98.8365
lradius 103.066 0 0
lwrist 42.2112 0 0
lhand -20.7845 45.9339 0
lfingers 7.12502 0 0
lthumb 5.58224 75.8325 0
rclavicle -2.17333e-14 -1.38858e-14 0
rhumerus 0.0750146 25.6986 -80.6384
rradius 72.6041 0 0
rwrist -16.9906 0 0
rhand 13.6288 -26.6024 0
rfingers 7.12502 0 0
rthumb 37.7499 -46.1339 0
312
root 0.768345 15.2824 -35.776 78.7199 59.4565 74.3836
lfemur -13.7707 13.43 -16.6234
ltibia 58.4566 0 0
lfoot -27.3913 28.2217 0
ltoes -1.80332 0 0
rfemur -40.1246 -7.48249 5.93866
rtibia 43.7491 0 0
rfoot 3.23947 -3.33705 0
rtoes -1.87923 0 0
lowerback 14.1664 1.46255 -3.83975
upperback -2.32635 1.48534 2.17695
thorax -10.4926 0.97025 4.24809
lowerneck -5.52282 0.850988 -1.41974
upperneck 6.13611 1.5333 -3.22896
head 3.47292 0.623058 -0.602123
lclavicle -2.03706e-14 -1.35561e-14 0
lhumerus -36.2617 -28.2492 100.093
lradius 102.666 0 0
lwrist 42.7827 0 0
lhand -20.8762 45.6041 0
lfingers 7.12502 0 0
lthumb 5.49366 75.5052 0
rclavicle -2.03706e-14 -1.35561e-14 0
rhumerus 2.27708 24.9763 -79.9366
rradius 71.3128 0 0
rwrist -15.7814 0 0
rhand 12.337 -26.9286 0
rfingers 7.12502 0 0
rthumb 36.5608 -47.0045 0
313
root 0.899503 15.2668 -35.7265 81.6223 60.756 77.6938
lfemur -12.7751 12.6155 -16.6456
ltibia 57.6923 0 0
lfoot -27.4685 28.1871 0
ltoes -2.47089 0 0
rfemur -40.4696 -6.91066 5.47675
rtibia 43.0778 0 0
rfoot 4.34812 -2.7123 0
rtoes -0.668212 0 0
lowerback 14.2134 1.44425 -4.21504
upperback -2.26512 1.38782 2.13736
thorax -10.4551 0.944142 4.44029
lowerneck -5.54396 0.463741 -1.6828
upperneck 6.19561 1.01942 -2.97569
head 3.48371 0.369918 -0.507055
lclavicle -1.90079e-14 -1.32264e-14 0
lhumerus -37.1269 -28.5144 101.349
lradius 102.266 0 0
lwrist 43.3541 0 0
lhand -20.968 45.2743 0
lfingers 7.12502 0 0
lthumb 5.40508 75.1778 0
rclavicle -1.90079e-14 -1.32264e-14 0
rhumerus 4.47915 24.254 -79.2347
rradius 70.0215 0 0
rwrist -14.5722 0 0
rhand 11.0451 -27.2547 0
rfingers 7.12502 0 0
rthumb 35.3717 -47.8751 0
314
root 1.03066 15.2512 -35.6771 84.5246 62.0556 81.004
lfemur -11.7795 11.8011 -16.6678
ltibia 56.9281 0 0
lfoot -27.5458 28.1524 0
ltoes -3.13845 0 0
rfemur -40.8145 -6.33883 5.01483
rtibia 42.4065 0 0
rfoot 5.45677 -2.08755 0
rtoes 0.542807 0 0
lowerback 14.2605 1.42594 -4.59032
upperback -2.20388 1.2903 2.09776
thorax -10.4177 0.918035 4.63248
lowerneck -5.56511 0.0764951 -1.94586
upperneck 6.25511 0.505538 -2.72243
head 3.49451 0.116777 -0.411987
lclavicle -1.76452e-14 -1.28967e-14 0
lhumerus -37.9922 -28.7797 102.606
lradius 101.866 0 0
lwrist 43.9256 0 0
lhand -21.0597 44.9445 0
lfingers 7.12502 0 0
lthumb 5.3165 74.8505 0
rclavicle -1.76452e-14 -1.28967e-14 0
rhumerus 6.68121 23.5317 -78.5329
rradius 68.7303 0 0
rwrist -13.3629 0 0
rhand 9.75332 -27.5809 0
rfingers 7.12502 0 0
rthumb 34.1825 -48.7457 0
315
root 1.16182 15.2356 -35.6276 87.427 63.3551 84.3142
lfemur -10.7838 10.9866 -16.6901
ltibia 56.1639 0 0
lfoot -27.623 28.1178 0
ltoes -3.80601 0 0
rfemur -41.1595 -5.76701 4.55292
rtibia 41.7352 0 0
rfoot 6.56542 -1.4628 0
rtoes 1.75383 0 0
lowerback 14.3075 1.40764 -4.96561
upperback -2.14265 1.19278 2.05817
thorax -10.3802 0.891927 4.82468
lowerneck -5.58625 -0.310751 -2.20892
upperneck 6.31461 -0.00834561 -2.46916
head 3.5053 -0.136363 -0.316919
lclavicle -1.62825e-14 -1.25671e-14 0
lhumerus -38.8574 -29.0449 103.862
lradius 101.465 0 0
lwrist 44.497 0 0
lhand -21.1515 44.6148 0
lfingers 7.12502 0 0
lthumb 5.22793 74.5231 0
rclavicle -1.62825e-14 -1.25671e-14 0
rhumerus 8.88328 22.8094 -77.831
rradius 67.439 0 0
rwrist -12.1537 0 0
rhand 8.46149 -27.9071 0
rfingers 7.12502 0 0
rthumb 32.9934 -49.6163 0
316
root 1.29298 15.22 -35.5781 90.3293 64.6547 87.6244
lfemur -9.78823 10.1721 -16.7123
ltibia 55.3996 0 0
lfoot -27.7003 28.0831 0
ltoes -4.47358 0 0
rfemur -41.5045 -5.19518 4.091
rtibia 41.0639 0 0
rfoot 7.67407 -0.838055 0
rtoes 2.96485 0 0
lowerback 14.3545 1.38933 -5.34089
upperback -2.08141 1.09526 2.01857
thorax -10.3427 0.865819 5.01687
lowerneck -5.60739 -0.697998 -2.47198
upperneck 6.37411 -0.522229 -2.2159
head 3.5161 -0.389504 -0.221851
lclavicle -1.49198e-14 -1.22374e-14 0
lhumerus -39.7226 -29.3102 105.118
lradius 101.065 0 0
lwrist 45.0685 0 0
lhand -21.2432 44.285 0
lfingers 7.12502 0 0
lthumb 5.13935 74.1958 0
rclavicle -1.49198e-14 -1.22374e-14 0
rhumerus 11.0853 22.0871 -77.1292
rradius 66.1478 0 0
rwrist -10.9445 0 0
rhand 7.16966 -28.2332 0
rfingers 7.12502 0 0
rthumb 31.8043 -50.4869 0
317
root 1.42414 15.2044 -35.5286 93.2317 65.9542 90.9346
lfemur -8.79261 9.35767 -16.7345
ltibia 54.6354 0 0
lfoot -27.7776 28.0485 0
ltoes -5.14114 0 0
rfemur -41.8495 -4.62336 3.62909
rtibia 40.3926 0 0
rfoot 8.78271 -0.213307 0
rtoes 4.17587 0 0
lowerback 14.4015 1.37103 -5.71618
upperback -2.02018 0.997739 1.97897
thorax -10.3052 0.839711 5.20906
lowerneck -5.62854 -1.08524 -2.73505
upperneck 6.43361 -1.03611 -1.96264
head 3.52689 -0.642644 -0.126784
lclavicle -1.35571e-14 -1.19077e-14 0
lhumerus -40.5878 -29.5755 106.375
lradius 100.665 0 0
lwrist 45.6399 0 0
lhand -21.3349 43.9552 0
lfingers 7.12502 0 0
lthumb 5.05077 73.8684 0
rclavicle -1.35571e-14 -1.19077e-14 0
rhumerus 13.2874 21.3648 -76.4273
rradius 64.8565 0 0
rwrist -9.73527 0 0
rhand 5.87784 -28.5594 0
rfingers 7.12502 0 0
rthumb 30.6152 -51.3575 0
318
root 1.5553 15.1888 -35.4792 96.134 67.2538 94.2448
lfemur -7.79699 8.5432 -16.7568
ltibia 53.8712 0 0
lfoot -27.8548 28.0138 0
ltoes -5.8087 0 0
rfemur -42.1944 -4.05153 3.16718
rtibia 39.7213 0 0
rfoot 9.89136 0.411441 0
rtoes 5.38689 0 0
lowerback 14.4485 1.35273 -6.09146
upperback -1.95894 0.900218 1.93938
thorax -10.2677 0.813603 5.40126
lowerneck -5.64968 -1.47249 -2.99811
upperneck 6.49311 -1.55 -1.70937
head 3.53768 -0.895785 -0.0317159
lclavicle -1.21943e-14 -1.1578e-14 0
lhumerus -41.4531 -29.8407 107.631
lradius 100.265 0 0
lwrist 46.2114 0 0
lhand -21.4267 43.6254 0
lfingers 7.12502 0 0
lthumb 4.96219 73.5411 0
rclavicle -1.21943e-14 -1.1578e-14 0
rhumerus 15.4895 20.6425 -75.7255
rradius 63.5652 0 0
rwrist -8.52605 0 0
rhand 4.58601 -28.8856 0
rfingers 7.12502 0 0
rthumb 29.426 -52.2281 0
319
root 1.68645 15.1732 -35.4297 99.0364 68.5533 97.555
lfemur -6.80136 7.72874 -16.779
ltibia 53.107 0 0
lfoot -27.9321 27.9792 0
ltoes -6.47627 0 0
rfemur -42.5394 -3.47971 2.70526
rtibia 39.0499 0 0
rfoot 11 1.03619 0
rtoes 6.5979 0 0
lowerback 14.4955 1.33442 -6.46675
upperback -1.89771 0.802698 1.89978
thorax -10.2302 0.787495 5.59345
lowerneck -5.67082 -1.85974 -3.26117
upperneck 6.55261 -2.06388 -1.45611
head 3.54848 -1.14893 0.063352
lclavicle -1.08316e-14 -1.12483e-14 0
lhumerus -42.3183 -30.106 108.887
lradius 99.8646 0 0
lwrist 46.7828 0 0
lhand -21.5184 43.2956 0
lfingers 7.12502 0 0
lthumb 4.87362 73.2137 0
rclavicle -1.08316e-14 -1.12483e-14 0
rhumerus 17.6915 19.9202 -75.0236
rradius 62.274 0 0
rwrist -7.31682 0 0
rhand 3.29418 -29.2117 0
rfingers 7.12502 0 0
rthumb 28.2369 -53.0987 0
